<svg height="26" viewBox="0 0 79 26" width="79" xmlns="http://www.w3.org/2000/svg"><path d="m22.098 24.561h8.249v-1.073h-1.77c-.064 0-.222-.032-.442-.096a2.241 2.241 0 0 1 -.727-.285c-.252-.253-.348-.568-.348-1.17v-18.489l7.111 21.112h2.339l7.208-21.144v18.93c0 .287-.128.57-.38.76-.19.158-.665.317-1.106.381h-1.835v1.073h11.666v-1.073h-1.741c-1.042 0-1.643-.601-1.643-1.551v-17.478c0-.695.062-.916.412-1.137.188-.189.662-.348 1.168-.411h1.833v-1.138h-9.482l-5.531 16.12-5.374-16.12h-9.577v1.138h1.739c.947 0 1.58.601 1.58 1.548v16.847l.031.631c0 .917-.696 1.551-1.643 1.551h-1.739v1.074zm-22.098 0h20.48l.632-7.33h-1.202c-.474 4.075-3.064 6.321-7.363 6.321h-3.161c-.853 0-1.201-.413-1.201-1.33v-9.544h1.644c1.675 0 3.161.378 3.824.979.664.633 1.138 1.802 1.138 2.876 0 .189 0 .412-.031.634h1.168v-9.959l-1.168-.032v.254c0 2.75-1.739 4.235-4.931 4.235h-1.644v-7.775c0-.852.254-1.105 1.044-1.105h3.16c2.497 0 3.793.379 5.153 1.517 1.01.822 1.801 2.055 1.989 3.161.063.283.096.662.126 1.138h1.328l-.537-6.828h-20.448v1.107h1.77c.917 0 1.548.569 1.548 1.548v17.541c0 .918-.631 1.519-1.58 1.519h-1.738z" fill="#211915"/><path d="m77.094 18.679a12.93 12.93 0 0 0 1.288-5.082h-12.233v5.183h10.893zm-12.314-11.956h-10.798a12.908 12.908 0 0 0 -1.589 5.507h12.387zm1.369 0v5.507h12.226a13.005 13.005 0 0 0 -1.586-5.507zm-1.369 6.874h-12.394a12.986 12.986 0 0 0 1.336 5.183h11.058zm0 6.549h-10.272a13.01 13.01 0 0 0 10.272 5.854zm1.369-14.792h9.768a13.012 13.012 0 0 0 -9.768-5.347zm0 14.792v5.844a13 13 0 0 0 10.109-5.844zm-1.369-14.792v-5.354a12.995 12.995 0 0 0 -9.927 5.354z" fill="#6887a6"/></svg>