<svg xmlns="http://www.w3.org/2000/svg" width="28" height="28" viewBox="0 0 28 28"><path opacity=".5" fill="none" d="M0 0h28v28H0z"/><path opacity=".5" fill="none" d="M0 0h28v28H0z"/><path fill="#ffffff" d="M21 7.875H7c-.963 0-1.75.787-1.75 1.75v8.75c0 .963.787 1.75 1.75 1.75h14c.962 0 1.75-.787 1.75-1.75v-8.75c0-.963-.788-1.75-1.75-1.75zm-.256 9.006a.874.874 0 1 1-1.237 1.237l-2.881-2.881-2.006 2.006a.874.874 0 0 1-1.237 0l-2.006-2.006-2.881 2.881a.874.874 0 1 1-1.237-1.237L10.138 14l-2.881-2.881a.874.874 0 1 1 1.237-1.237L14 15.388l5.506-5.506a.874.874 0 1 1 1.237 1.237L17.862 14l2.882 2.881z"/></svg>