<svg height="40" viewBox="0 0 40 40" width="40" xmlns="http://www.w3.org/2000/svg"><path d="m0 0h40v40h-40z" fill="#3664a4"/><path clip-rule="evenodd" d="m30.924 6.936h-21.375v.708l3.246 1v23.132l-3.246 1.001v.708h22.224l.769-8.627-.769-.168-3.276 4.335c-1.334 1.751-2.669 2.626-4.934 2.751l-4.975.25v-10.92h1.375c2.306 0 3.195.834 4.165 3.418l.485 1.292h.85v-11.212h-.85l-.485 1.376c-.93 2.584-1.859 3.418-4.165 3.418h-1.375v-11.044l3.682.166c2.83.125 3.842.875 5.298 3.001l3.154 4.584.769-.208z" fill="#fff" fill-rule="evenodd"/></svg>