<svg height="84.688" viewBox="-20.188 0 350 84.688" width="350" xmlns="http://www.w3.org/2000/svg"><path d="m138.202 56.284c-1.875 1.09-3.261 1.595-4.892 1.595-2.936 0-5.136-2.184-5.136-5.878 0-4.62 2.53-7.141 10.028-7.645zm4.149 5.449h10.557v-1.177l-4.298-2.013.025-24.69c0-7.558-4.322-11.505-11.575-11.505-7.664 0-18.503 3.779-18.503 10.835 0 2.94 1.957 5.544 5.298 5.544 3.016 0 5.138-2.604 5.138-5.376 0-2.099-1.143-4.702-3.427-6.552a23.883 23.883 0 0 1 3.996-.335c6.764 0 8.64 3.36 8.64 8.149v7.727c-12.472.084-20.948 4.2-20.948 11.929 0 5.209 3.75 8.821 9.861 8.821 4.564 0 8.153-2.184 11.087-5.294l.406.171c.049 2.088 1.658 3.766 3.743 3.766zm122.139-57.532h11.568l-8.511 13.308h-6.575zm-34.854 6.671c0-3.686 2.897-6.673 6.476-6.673 3.577 0 6.477 2.987 6.477 6.673 0 3.685-2.899 6.673-6.477 6.673-3.581 0-6.476-2.988-6.476-6.673zm91.96 23.067c0-5.963-2.689-11.592-10.027-11.592-4.396 0-9.124 2.267-13.937 6.972l-.327-.168-.021-5.544h-14.415v1.166l4.66 2.312v31.468l-4.303 2.018v1.175h18.216v-1.176l-3.485-2.018v-27.803c2.772-1.176 4.567-1.597 7.418-1.597 4.647 0 5.787 3.445 5.787 8.15v21.251l-4.071 2.018v1.175h18.807v-1.176l-4.302-2.018zm-90.213-6.844v31.458l-4.544 2.018v1.175h19.278v-1.176l-4.302-2.018v-34.946h-15.166v1.186zm-125.49 16.624c0 11.847-3.831 16.211-7.987 16.211-3.587 0-5.708-1.506-7.664-4.617v-26.295c2.037-.503 3.83-.755 5.543-.755 6.522 0 10.108 4.704 10.108 15.456zm-26.083 34.534-4.299 2.019v1.091h19.845v-1.091l-5.114-2.019v-16.135a26.58 26.58 0 0 0 5.054.503c13.775 0 21.761-10.165 21.761-21.506 0-11.591-6.521-19.236-14.426-19.236-4.809 0-9.619 2.856-12.631 5.797l-.329-.168.003-3.9h-14.508v1.177l4.625 2.27zm193.25-36.046c0 10.502-2.525 17.641-8.393 17.641-5.87 0-8.396-7.139-8.396-17.641 0-10.499 2.526-17.639 8.396-17.639 5.867 0 8.393 7.14 8.393 17.639zm11.169 0c0-10.751-5.949-20.328-19.073-20.328-13.042 0-20.052 10.248-20.052 20.328 0 10.837 5.949 20.414 19.075 20.414 13.121 0 20.05-10.331 20.05-20.414zm-57.178 7.646c0-7.309-5.707-9.91-11.006-12.096-4.647-1.931-9.044-3.612-9.044-7.895 0-2.522 1.79-5.125 4.966-5.125 3.918 0 6.033 2.604 10.925 9.408l1.628-.335-.243-10.418c-2.284-.841-7.011-1.511-10.188-1.511-8.801 0-15.16 5.46-15.16 12.096 0 7.391 5.704 9.997 11.004 12.267 4.644 1.928 8.968 3.609 8.968 7.812 0 3.359-1.959 5.708-5.218 5.708-4.239 0-7.254-2.769-13.205-11.085l-1.631.165.244 11.508c3.754 1.514 7.911 2.271 12.799 2.271 7.823-.002 15.161-4.957 15.161-12.77zm-34.007-15.914c0-5.963-2.692-11.592-10.029-11.592-4.401 0-9.132 2.267-13.936 6.972l-.327-.168-.022-5.544h-14.417v1.166l4.657 2.312v31.468l-4.298 2.004v1.188h18.214v-1.175l-3.485-2.016v-27.805c2.773-1.176 4.567-1.597 7.421-1.597 4.646 0 5.787 3.445 5.787 8.15v21.251l-3.482 2.018v1.175h18.214v-1.176l-4.296-2.018v-24.613zm-136.833 3.614-6.356-11.089 3.646-1.679v-1.177h-19.765v1.177l3.891 1.679 11.983 18.229-11.085 13.61-4.301 2.27v1.175h13.407v-1.175l-3.321-1.85 7.254-11.007 6.603 11.091-3.893 1.766v1.175h20.012v-1.175l-3.894-1.766-12.386-18.316 10.677-13.438 4.624-2.269v-1.177h-13.65v1.177l3.155 1.931zm-25.451-33.381h-46.35v1.537l7.038 2.168v50.16l-7.038 2.172v1.536h48.19l1.667-18.711-1.667-.36-7.104 9.396c-2.893 3.801-5.788 5.696-10.698 5.967l-10.788.543v-23.678h2.982c5 0 6.928 1.81 9.032 7.411l1.055 2.804h1.841v-24.317h-1.841l-1.055 2.984c-2.015 5.604-4.032 7.414-9.032 7.414h-2.982v-23.953l7.981.362c6.137.27 8.331 1.896 11.488 6.508l6.841 9.94 1.667-.453z" fill="#f8eddf" stroke="#f8eddf" stroke-miterlimit="10" stroke-width="6"/><path d="m138.022 56.697c-1.875 1.091-3.261 1.594-4.892 1.594-2.935 0-5.136-2.185-5.136-5.878 0-4.62 2.531-7.14 10.028-7.646zm4.149 5.448h10.558v-1.176l-4.299-2.013.024-24.69c0-7.559-4.322-11.507-11.575-11.507-7.664 0-18.503 3.779-18.503 10.835 0 2.94 1.957 5.544 5.298 5.544 3.016 0 5.138-2.604 5.138-5.376 0-2.1-1.143-4.702-3.427-6.552a23.775 23.775 0 0 1 3.995-.335c6.765 0 8.64 3.359 8.64 8.147v7.726c-12.472.085-20.948 4.202-20.948 11.931 0 5.208 3.75 8.819 9.861 8.819 4.565 0 8.153-2.184 11.087-5.292l.406.169c.053 2.093 1.662 3.77 3.745 3.77zm122.142-57.532h11.569l-8.511 13.309h-6.574zm-34.856 6.671c0-3.686 2.897-6.673 6.475-6.673s6.477 2.987 6.477 6.673c0 3.685-2.899 6.674-6.477 6.674s-6.475-2.99-6.475-6.674zm91.959 23.066c0-5.963-2.688-11.591-10.027-11.591-4.396 0-9.123 2.267-13.936 6.973l-.327-.169-.021-5.544h-14.415v1.167l4.659 2.312v31.47l-4.302 2.015v1.175h18.216v-1.175l-3.485-2.015v-27.809c2.772-1.175 4.567-1.597 7.418-1.597 4.649 0 5.788 3.445 5.788 8.15v21.254l-4.072 2.015v1.175h18.807v-1.175l-4.303-2.015zm-90.212-6.844v31.461l-4.543 2.015v1.175h19.277v-1.175l-4.303-2.015v-34.95h-15.165v1.188zm-125.488 16.624c0 11.846-3.831 16.211-7.987 16.211-3.587 0-5.708-1.507-7.664-4.616v-26.295c2.037-.503 3.83-.755 5.542-.755 6.522 0 10.109 4.702 10.109 15.455zm-26.084 34.534-4.298 2.017v1.093h19.845v-1.093l-5.113-2.017v-16.136c1.712.335 3.423.504 5.054.504 13.775 0 21.761-10.166 21.761-21.506 0-11.591-6.52-19.236-14.425-19.236-4.808 0-9.617 2.856-12.632 5.797l-.328-.167.004-3.901h-14.513v1.177l4.625 2.27zm193.252-36.047c0 10.502-2.526 17.641-8.395 17.641-5.871 0-8.396-7.139-8.396-17.641 0-10.498 2.525-17.638 8.396-17.638 5.868 0 8.395 7.14 8.395 17.638zm11.166 0c0-10.75-5.949-20.327-19.071-20.327-13.044 0-20.054 10.25-20.054 20.327 0 10.838 5.949 20.415 19.076 20.415 13.12 0 20.049-10.332 20.049-20.415zm-57.178 7.647c0-7.309-5.706-9.911-11.007-12.097-4.646-1.931-9.042-3.613-9.042-7.895 0-2.522 1.789-5.125 4.966-5.125 3.919 0 6.033 2.604 10.924 9.408l1.63-.335-.244-10.418c-2.284-.839-7.01-1.511-10.188-1.511-8.803 0-15.159 5.46-15.159 12.098 0 7.391 5.702 9.998 11.003 12.266 4.644 1.93 8.968 3.61 8.968 7.812 0 3.36-1.96 5.709-5.218 5.709-4.24 0-7.252-2.769-13.206-11.086l-1.631.164.244 11.511c3.753 1.513 7.912 2.27 12.801 2.27 7.822-.003 15.159-4.96 15.159-12.771zm-34.007-15.914c0-5.963-2.692-11.591-10.029-11.591-4.4 0-9.13 2.267-13.936 6.973l-.326-.169-.021-5.544h-14.418v1.167l4.658 2.312v31.47l-4.299 2.003v1.188h18.215v-1.176l-3.487-2.015v-27.809c2.775-1.175 4.568-1.597 7.422-1.597 4.645 0 5.786 3.445 5.786 8.15v21.254l-3.481 2.015v1.175h18.214v-1.175l-4.297-2.015v-24.616zm-136.832 3.614-6.356-11.088 3.646-1.68v-1.177h-19.766v1.177l3.892 1.68 11.982 18.228-11.085 13.609-4.301 2.269v1.175h13.408v-1.175l-3.322-1.848 7.254-11.009 6.603 11.091-3.892 1.766v1.175h20.01v-1.175l-3.893-1.766-12.385-18.314 10.678-13.438 4.623-2.27v-1.177h-13.65v1.177l3.156 1.93zm-25.452-33.381h-46.349v1.536l7.038 2.168v50.162l-7.038 2.169v1.536h48.19l1.667-18.709-1.667-.358-7.104 9.396c-2.893 3.801-5.788 5.696-10.696 5.966l-10.789.541v-23.677h2.983c4.999 0 6.927 1.811 9.032 7.413l1.054 2.803h1.842v-24.317h-1.842l-1.054 2.984c-2.016 5.603-4.034 7.413-9.032 7.413h-2.983v-23.953l7.981.361c6.139.27 8.331 1.896 11.488 6.508l6.841 9.938 1.667-.452z" fill="#171614"/></svg>