<?xml version="1.0" encoding="utf-8"?>
<!-- Generator: Adobe Illustrator 23.0.4, SVG Export Plug-In . SVG Version: 6.00 Build 0)  -->
<!DOCTYPE svg PUBLIC "-//W3C//DTD SVG 1.1//EN" "http://www.w3.org/Graphics/SVG/1.1/DTD/svg11.dtd" [
	<!ENTITY ns_extend "http://ns.adobe.com/Extensibility/1.0/">
	<!ENTITY ns_ai "http://ns.adobe.com/AdobeIllustrator/10.0/">
	<!ENTITY ns_graphs "http://ns.adobe.com/Graphs/1.0/">
	<!ENTITY ns_vars "http://ns.adobe.com/Variables/1.0/">
	<!ENTITY ns_imrep "http://ns.adobe.com/ImageReplacement/1.0/">
	<!ENTITY ns_sfw "http://ns.adobe.com/SaveForWeb/1.0/">
	<!ENTITY ns_custom "http://ns.adobe.com/GenericCustomNamespace/1.0/">
	<!ENTITY ns_adobe_xpath "http://ns.adobe.com/XPath/1.0/">
]>
<svg version="1.1" id="Capa_1" xmlns:x="&ns_extend;" xmlns:i="&ns_ai;" xmlns:graph="&ns_graphs;"
	 xmlns="http://www.w3.org/2000/svg" xmlns:xlink="http://www.w3.org/1999/xlink" x="0px" y="0px" width="1324.3px"
	 height="450.5px" viewBox="0 0 1324.3 450.5" style="enable-background:new 0 0 1324.3 450.5;" xml:space="preserve">
<style type="text/css">
	.st0{fill:#FFFFFF;}
	.st1{enable-background:new    ;}
</style>
<metadata>
	<sfw  xmlns="&ns_sfw;">
		<slices></slices>
		<sliceSourceBounds  bottomLeftOrigin="true" height="424.6" width="1536.7" x="6.4" y="5.8"></sliceSourceBounds>
	</sfw>
</metadata>
<g>
	<g>
		<g>
			<g>
				<g>
					<path class="st0" d="M393.9,369.9h-4.4c-2-3.1-3.7-6.3-5.1-9.8c-1.3-3-4.7-4.5-7.8-3.2c-3,1.3-4.5,4.7-3.2,7.8
						c0.7,1.8,1.6,3.5,2.4,5.2H142c-1.8,0-3.5,0.3-5.2,0.7c-3.7-6.3-8.8-18.1-8.8-35.5c0-2.6,0.1-5.2,0.3-7.7h114.2c3.3,0,6-2.7,6-6
						s-2.7-6-6-6h-109l14-15.2h228.3c-2.5,4.8-4.4,9.9-5.7,15.2h-78.3c-3.3,0-6,2.7-6,6s2.7,6,6,6H368c-0.2,2.4-0.4,4.9-0.4,7.3
						c0,3.3,2.6,6,5.9,6l0,0c3.3,0,5.9-2.7,6-5.9c0.1-12.5,3.5-24.4,10-34.5h4.4c10.6,0,19.1-8.6,19.1-19.1
						c0-10.6-8.6-19.1-19.1-19.1h-74.5l68.2-68.2c3.9-3.9,6-9,6-14.5s-2.1-10.6-6-14.5l-1.5-1.5c-3.9-3.9-9-6-14.5-6
						c-5,0-9.7,1.8-13.5,5l-10.5-10.5l3.6-3.6c4.8-4.8,6.3-12,3.7-18.3l-4.9-11.9c-1.7-4.1-5.3-7.1-9.6-8l-8.3-8.3
						c-2.3-2.3-6.1-2.3-8.4,0s-2.3,6.1,0,8.4l4.1,4.1L234,208.2l-27.6-27.6l93.9-93.9l3.7,3.7c1.2,1.2,2.7,1.7,4.2,1.7
						s3-0.6,4.2-1.7c2.3-2.3,2.3-6.1,0-8.4l-7.9-7.9c-0.9-4.3-3.9-7.9-8-9.6l0,0l-11.9-4.9c-6.3-2.6-13.5-1.1-18.3,3.7l-3.6,3.6
						l-10.5-10.5c3.3-3.7,5-8.5,5-13.5c0-5.5-2.1-10.6-6-14.5l-1.5-1.5c-3.9-3.9-9-6-14.5-6s-10.6,2.1-14.5,6L146.6,101
						c-3.9,3.9-6,9-6,14.5s2.1,10.6,6,14.5l1.5,1.5c3.9,3.9,9,6,14.5,6c5,0,9.7-1.8,13.5-5l10.5,10.5l-3.6,3.6
						c-4.8,4.8-6.3,12-3.7,18.3l4.9,11.9c1.7,4.1,5.2,7,9.5,7.9l-29.9,35.6c-7.4-3-16.2-1.6-22.2,4.4c-3.8,3.8-6,9-6,14.4
						c0,2.4,0.4,4.8,1.2,7l-13.5,12.5c-2.4,2.2-2.6,6-0.3,8.4c1.2,1.3,2.8,1.9,4.4,1.9c1.4,0,2.9-0.5,4-1.6l12.5-11.6l14.8,14.8
						l-111,120.2c-3.2,3.4-7.5,5.4-12.1,5.5c-4.7,0.1-9-1.7-12.3-5s-5.1-7.7-5-12.3s2-9,5.5-12.1l87-80.3c2.4-2.2,2.6-6,0.3-8.4
						c-2.2-2.4-6-2.6-8.4-0.3l-87,80.3c-5.8,5.4-9.1,12.7-9.3,20.7c-0.2,7.9,2.8,15.4,8.5,21c5.5,5.5,12.7,8.5,20.4,8.5
						c0.2,0,0.4,0,0.6,0c7.9-0.2,15.3-3.5,20.7-9.3l35.7-38.7c2.9,10,7,16.8,9.6,20.4s6.8,5.8,11.3,5.8h10c-0.1,0.8-0.2,1.7-0.2,2.5
						c0,10.6,8.6,19.1,19.1,19.1H394c10.6,0,19.1-8.6,19.1-19.1C413.1,378.5,404.5,369.9,393.9,369.9L393.9,369.9z M401.2,281.2
						c0,4-3.2,7.2-7.2,7.2H158.5l9.9-10.7c2.3,0.8,4.6,1.2,7,1.2c4.8,0,9.5-1.7,13.3-5h205.2C397.9,274,401.2,277.3,401.2,281.2
						L401.2,281.2z M221.4,212.5l-34.5,28.9l-13.7-13.7l28.9-34.5L221.4,212.5z M195.4,262.1c0.6-3.8,0.2-7.7-1.2-11.2l35.6-29.9
						c0.9,4.3,3.9,7.8,7.9,9.5l11.9,4.9c2.1,0.8,4.2,1.3,6.4,1.3c4.4,0,8.7-1.7,11.9-4.9l3.6-3.6l10.5,10.5
						c-5.8,6.6-6.6,16.1-2.4,23.5L195.4,262.1L195.4,262.1z M371.7,169.3c2.3,0,4.5,0.9,6.1,2.5l1.5,1.5c1.6,1.6,2.5,3.8,2.5,6.1
						s-0.9,4.5-2.5,6.1l-74.2,74.2c-1.6,1.6-3.8,2.5-6.1,2.5s-4.5-0.9-6.1-2.5l-1.5-1.5c-3.4-3.4-3.4-8.8,0-12.2l74.2-74.2
						C367.2,170.1,369.4,169.3,371.7,169.3L371.7,169.3z M349.8,170.8l-59.3,59.3L280,219.6l59.3-59.3L349.8,170.8z M241.8,217.2
						l95.1-95.1c0.3-0.3,0.6-0.4,0.9-0.4c0.1,0,0.2,0,0.3,0c0.3,0.1,0.7,0.3,1,0.8l4.9,11.9c0.8,1.9,0.3,4-1.1,5.4l-83.4,83.4
						c-1.4,1.4-3.5,1.8-5.4,1.1l-11.9-4.9c-0.5-0.2-0.7-0.6-0.8-1S241.4,217.7,241.8,217.2L241.8,217.2z M162.6,125.6
						c-2.3,0-4.5-0.9-6.1-2.5l-1.5-1.5c-1.6-1.6-2.5-3.8-2.5-6.1c0-2.3,0.9-4.5,2.5-6.1l74.2-74.2c1.6-1.6,3.8-2.5,6.1-2.5
						s4.5,0.9,6.1,2.5l1.5,1.5c1.6,1.6,2.5,3.8,2.5,6.1s-0.9,4.5-2.5,6.1l-74.2,74.2C167,124.7,164.9,125.6,162.6,125.6L162.6,125.6
						z M184.5,124.1l59.3-59.3l10.5,10.5L195,134.6L184.5,124.1z M191.4,155.1l83.4-83.4c0.9-0.9,2.2-1.5,3.5-1.5
						c0.6,0,1.3,0.1,1.9,0.4l11.9,4.9c0.5,0.2,0.7,0.6,0.8,1c0.1,0.3,0.1,0.8-0.4,1.2l-95.1,95.1c-0.4,0.4-0.9,0.4-1.2,0.4
						c-0.3-0.1-0.7-0.3-1-0.8l-4.9-11.9C189.6,158.6,190,156.5,191.4,155.1L191.4,155.1z M147.5,239.2c0-2.3,0.9-4.4,2.5-6
						c3.3-3.3,8.6-3.3,11.9,0l19.4,19.4c3.3,3.3,3.3,8.6,0,11.9c-3.3,3.3-8.6,3.3-11.9,0L150,245.2
						C148.4,243.6,147.5,241.5,147.5,239.2L147.5,239.2z M111.4,373.8c-2.6-3.7-7.3-11.7-9.5-24.1l14.3-15.5c0,0.3,0,0.6,0,0.9
						c0,18.4,5,31.6,9.2,39.5H113C112.4,374.6,111.8,374.3,111.4,373.8z M393.9,396.3H142c-4,0-7.2-3.2-7.2-7.2s3.2-7.2,7.2-7.2
						h251.9c4,0,7.2,3.2,7.2,7.2C401.2,393,397.9,396.3,393.9,396.3z"/>
					<path class="st0" d="M173,342.6c-3.3,0-6,2.7-6,6s2.7,6,6,6h138.8c3.3,0,6-2.7,6-6s-2.7-6-6-6H173z"/>
				</g>
			</g>
		</g>
	</g>
</g>
<g class="st1">
	<path class="st0" d="M558.2,44c1-1.6,1.6-2.4,1.9-2.4c0.1,0,0.4,0.1,0.7,0.3c0.3,0.2,1,0.1,2-0.3c7.3-3.8,16.1-5.7,26.5-5.7
		c6.3,0,11.9,0.8,16.9,2.5c5,1.7,8.9,4.3,11.7,8c2.8,3.6,4.9,7.8,6.3,12.4c1.4,4.6,2.1,9.3,2.1,14.1c0,12.9-4.2,27.3-12.6,43.3
		c-6.6,12.6-14.8,24.4-24.6,35.3c-8,9-16.1,16-24.4,21.2c-10.2,6.4-20.4,9.7-30.5,9.7c-2.8,0-7.6,0.3-14.5,1c-2.7,0.3-5,0.4-7.1,0.4
		c-4.6,0-8.2-1-10.7-3.1c-3.2-2.7-6-7.6-8.2-14.9c-0.1-0.3-0.3-1.1-0.5-2.4c-0.2-1.3-0.3-2.4-0.3-3.3c0-7.6,5.6-14.3,16.8-20.2
		c2.9-1.5,8.7-4.1,17.4-7.6c6.9-2.9,13.9-10.6,21.2-22.9c3.2-5.9,6.5-11.8,9.9-17.6c1.3-2.2,4.5-7.5,9.7-15.8
		c7-11.2,11.7-20.3,14.1-27.3c-1.7-0.3-3.5-0.4-5.4-0.4c-1.9,0-3.3,0-4.3,0c-1.8,0-4.8,0-9,0c-4.2,0-7.5,0-9.9,0L558.2,44z
		 M515.1,146.5c-4.2,1.7-7.2,3.5-8.9,5.4c-1.8,1.9-2.6,4.2-2.6,6.8c0,2.2,0.7,5.3,2.1,9.2c8.3-9.2,13.8-18,16.6-26.2
		c-0.7,0.6-1.3,1.1-1.9,1.7C517.7,145.1,515.9,146.1,515.1,146.5z M524.8,175.1l2.3-2.3c2.4,0.8,4.8,1.3,7.1,1.3c7,0,15-3,23.9-9
		c6-4.1,12.4-9.5,19.1-16.2c11.1-11.1,19.9-22.5,26.5-34.4c8-14.4,12-28.2,12-41.4c0-1.3,0-2.5,0-3.8c-0.3-1.7-0.4-2.9-0.4-3.8
		c-0.4-4.6-2.1-8.8-5-12.6c-3.4-4.3-7.2-6.5-11.5-6.5c-4.6,0-7.6,1.3-8.8,3.8c-1.1,4.2-2.2,7.8-3.3,10.8c-1,3-2.6,6.5-4.7,10.4
		c-5.9,10.8-9,16.7-9.5,17.8c-2.9,7.1-7.7,15.3-14.3,24.6c-5.6,7.8-11.2,15.6-16.8,23.3c-3.9,5.5-7.9,11.2-12,17.1
		c-4.1,6-6.4,12.1-7.1,18.6L524.8,175.1z"/>
	<path class="st0" d="M767.9,158.5c-0.6,3.8-2.2,6.6-4.8,8.4c-2,1.4-5.1,2.6-9.4,3.6l-45.4,9.5c-5.5,1.1-11,2-16.5,2.6
		c-5.5,0.6-11.2,0.9-17.1,0.9c-14.1,0-25.1-2.1-32.8-6.3c-9.8-5.3-14.7-13.9-14.7-25.8c0-13.7,7.2-27.8,21.6-42.2
		c12.3-12.5,25.8-21.5,40.3-27.1c5.5-2,10.8-3.6,16-5c7.8-2.1,14.3-3.2,19.5-3.2c5.3,0,9.8,0.8,13.3,2.3c3.6,1.5,6.3,4.2,8.3,8.1
		c2,3.9,2.9,7.6,2.9,11.2c0,7.4-3.7,14.3-11.1,20.6c-6.7,5.7-13.9,9.5-21.4,11.1c-7.6,1.7-15,3.3-22.4,4.9
		c-7.4,1.6-13.8,2.4-19.4,2.4c-5,0-9.6-0.5-13.7-1.6c-4.1-1-8.3-2.9-12.6-5.6c-2.4,4.2-4.7,8.4-6.9,12.7c-2.2,4.3-3.4,8-3.4,11.2
		c0,2.5,0.8,5,2.4,7.5c1.6,2.5,4.3,4.8,8,6.9c3.7,2.2,8.4,3.8,14.2,4.8c5.7,1,11.7,1.6,17.9,1.6c4.9,0,8.7-0.1,11.4-0.3
		c2.7-0.2,7.1-0.7,13.2-1.4c6.1-0.7,11.9-1.7,17.3-3c5.5-1.3,11-2.7,16.6-4.1c3.6-0.8,8.4-3,14.2-6.6c5.8-3.6,11.4-5.4,16.9-5.4
		c-0.3,0.4-0.5,0.8-0.6,1.3C768.9,155.3,768.2,157.3,767.9,158.5z M670.3,118.4c1,0.3,2.7,1,5,2.3c2.4,1.3,4.6,1.9,6.7,1.9
		c5,0,11.6-1.2,19.7-3.6c3.8-1.1,7.6-2.3,11.3-3.6c5.7-1.5,10.8-3.6,15.1-6.1c6.6-3.9,9.9-8.3,9.9-13c0-1.3-0.4-2.9-1.3-4.8
		c-0.8-2-2.3-3.4-4.5-4.3c-2.2-0.9-4.9-1.4-8.3-1.4c-4.2,0-9.3,0.8-15.3,2.3c-3.2,0.8-7.6,2.1-13.2,3.9c-5.6,1.8-11.6,5.1-17.9,10.2
		c-4.1,3.2-9.7,8.5-17,15.8c0.1,0,0.3,0,0.4,0c1.4,0,2.9,0,4.4,0C667.6,118,669.2,118.1,670.3,118.4z"/>
	<path class="st0" d="M791.7,179.9l-2.3-2.3c-0.3-1.1,0.3-2.8,1.7-5c1-1.5,2-3.1,3.1-4.6c1.1-2,2.9-4.4,5.2-7.4
		c5.2-6.3,8.2-10.2,9-11.8c11.9-17.5,23.8-35,35.7-52.5c5.5-9.4,9.7-15.8,12.6-19.1c5.3-6.3,11.5-10.2,18.5-11.8
		c-2.1,5.9-6.4,13.2-12.8,21.9c-5.5,7.1-10.9,14.3-16.2,21.4c-5.5,8-8.5,15-9.2,21c4.2-2.9,11.5-9.2,22-19
		c5.6-5.3,10.2-9.2,13.9-11.7c6.7-5.7,11.7-9.8,14.9-12.3c6-4.7,11.6-7.1,16.8-7.1c0.7,0,2,0,4,0c-7.1,15.1-14.3,30.3-21.4,45.4
		c3.4,0.4,5.9,0.6,7.8,0.6c1.5,0,3.7-0.2,6.5-0.6c-0.7,3.6-2.7,7.3-5.9,10.9c-3.6,4.2-7.4,6.3-11.1,6.3c-2.5,0-4.8-1-6.9-2.9
		c-1.1-1.1-2-2.7-2.5-4.6c-0.6-2-0.8-4.1-0.8-6.5c0-3.5,0.3-7.1,1-10.7c0.7-3.6,1.5-7.5,2.3-11.6c-7.3,7.3-14.5,14.5-21.6,21.5
		c-7.1,7.1-15,14.2-23.5,21.3c-2.1,1.8-6.8,6.6-14.1,14.3c-10.8,11.6-19.7,18-26.7,19.1V179.9z"/>
	<path class="st0" d="M1065.9,158.5c-0.6,3.8-2.2,6.6-4.8,8.4c-2,1.4-5.1,2.6-9.5,3.6l-45.4,9.5c-5.5,1.1-11,2-16.5,2.6
		c-5.5,0.6-11.2,0.9-17.1,0.9c-14.1,0-25.1-2.1-32.8-6.3c-9.8-5.3-14.7-13.9-14.7-25.8c0-13.7,7.2-27.8,21.6-42.2
		c12.3-12.5,25.8-21.5,40.3-27.1c5.5-2,10.8-3.6,16-5c7.8-2.1,14.3-3.2,19.5-3.2c5.3,0,9.8,0.8,13.3,2.3c3.6,1.5,6.3,4.2,8.3,8.1
		c2,3.9,2.9,7.6,2.9,11.2c0,7.4-3.7,14.3-11.1,20.6c-6.7,5.7-13.9,9.5-21.4,11.1c-7.6,1.7-15,3.3-22.4,4.9
		c-7.3,1.6-13.8,2.4-19.4,2.4c-5,0-9.6-0.5-13.6-1.6c-4.1-1-8.3-2.9-12.6-5.6c-2.4,4.2-4.7,8.4-6.9,12.7c-2.2,4.3-3.4,8-3.4,11.2
		c0,2.5,0.8,5,2.4,7.5c1.6,2.5,4.3,4.8,8,6.9c3.7,2.2,8.4,3.8,14.2,4.8c5.7,1,11.7,1.6,17.8,1.6c4.9,0,8.7-0.1,11.4-0.3
		c2.7-0.2,7.1-0.7,13.2-1.4c6.1-0.7,11.9-1.7,17.3-3c5.5-1.3,11-2.7,16.6-4.1c3.6-0.8,8.4-3,14.2-6.6c5.8-3.6,11.4-5.4,16.9-5.4
		c-0.3,0.4-0.5,0.8-0.6,1.3C1066.8,155.3,1066.2,157.3,1065.9,158.5z M968.3,118.4c1,0.3,2.7,1,5,2.3c2.4,1.3,4.6,1.9,6.7,1.9
		c5,0,11.6-1.2,19.7-3.6c3.8-1.1,7.6-2.3,11.3-3.6c5.7-1.5,10.8-3.6,15.1-6.1c6.6-3.9,9.9-8.3,9.9-13c0-1.3-0.4-2.9-1.3-4.8
		c-0.8-2-2.3-3.4-4.5-4.3c-2.2-0.9-4.9-1.4-8.3-1.4c-4.2,0-9.3,0.8-15.3,2.3c-3.2,0.8-7.6,2.1-13.2,3.9c-5.6,1.8-11.5,5.1-17.8,10.2
		c-4.1,3.2-9.7,8.5-17,15.8c0.1,0,0.3,0,0.4,0c1.4,0,2.9,0,4.4,0C965.6,118,967.2,118.1,968.3,118.4z"/>
	<path class="st0" d="M1173.2,130l-2.3-2.3l2.3-2.3c0-3.4,0.8-6.6,2.3-9.7c0.4-0.7,2.9-4.1,7.6-10.3c3.4-4.4,5-8.3,5-11.8
		c0-1.3-0.2-2.7-0.6-4.2c-1-3.1-2.7-5.3-5-6.6c-2.4-1.3-5.2-2-8.6-2c-3.5,0-7.8,0.8-13,2.3c-3.2,1-7.1,2.3-11.6,4
		c-6.6,2.5-13,6.1-19.1,10.7c-5.3,4.1-10.9,9.2-16.6,15.5c-4.2,4.5-7.6,9.3-10.1,14.5c-2.9,5.9-4.4,11.5-4.4,17
		c0,3.8,0.7,7.2,2.2,10.2c1.5,3,3.9,5.8,7.3,8.4c3.4,2.6,7.2,4.5,11.2,5.7c4.1,1.2,8.4,1.8,13,1.8c9.8,0,19.2-2.4,28.4-7.4
		c3.2-2.7,5.9-4.8,8-6.5c4.1-3.2,7.3-4.8,9.7-4.8c2.9,0,5,2.2,6.3,6.5c0.1,0.6,0.2,1.3,0.2,2.1c0,3.9-3,7.5-9,10.7
		c-7,3.8-16,6.7-27.1,8.6c-5,0.8-10.2,1.3-15.3,1.3c-13,0-23.3-2.7-30.9-8c-9-6.3-13.4-16-13.4-29c0-19.3,9.5-36.7,28.6-52.1
		c18.1-14.7,37.2-22,57.3-22c7.4,0,13,1.9,16.7,5.8c3.7,3.9,5.6,9.3,5.6,16.3c0,2.1-0.2,4.3-0.6,6.7c-1.5,10.6-3.5,18.1-5.9,22.3
		c-3.6,6.4-9.7,10.2-18.1,11.1V130z"/>
	<path class="st0" d="M1213.8,186.7v-2.3c-0.4-1.4-0.4-3,0.2-4.8c1.1-2.4,1.8-3.9,2.1-4.6c2.2-3.8,5.7-8,10.5-12.8
		c3.6-3.6,7.4-7.3,11.1-10.9c7.8-10.3,15.8-20.7,23.7-31.1c3.4-3.8,9.5-10.2,18.3-19.3c13.9-14.4,23.7-26.2,29.6-35.5
		c6.6-10.8,12.5-19.4,17.9-26c8.4-10.5,16-16.9,22.7-19.3c-0.8,7.1-4.6,15.3-11.1,24.4c-6.2,7.7-12.3,15.4-18.3,23.1
		c-6.7,9.1-10.4,17.2-11.1,24.2c6.6-3.8,13.2-7.6,20-11.3c10.4-5.5,18-8.2,22.9-8.2c4.9,0,7.4,2.6,7.4,7.8c0,2.8-0.8,6.7-2.5,11.8
		c-0.8,2.4-8.6,14.6-23.3,36.8c-5.9,8.8-9.2,16.5-10.1,22.9c-0.3,2.2-0.4,3.7-0.4,4.4c0,6.9,4.8,11.1,14.3,12.8
		c9.5,1.7,15.2,3.9,17,6.5c-7.1,3.9-14.1,5.9-20.8,5.9c-6.4,0-11.6-2-15.5-5.9c-4.3-4.3-6.5-10.7-6.5-19.1c0-7.8,2.6-16.2,7.8-25
		c5-7.7,10.1-15.5,15.3-23.3c6-9.7,9.5-18.2,10.3-25.6c-11.9,5.7-25.1,14.5-39.7,26.4c-12.3,10.3-24.6,20.6-36.8,30.8
		c-2.1,1.7-10.3,11.2-24.6,28.5c-10.5,12.9-19.8,20-27.9,21.4L1213.8,186.7z"/>
	<path class="st0" d="M1473.7,101.2c2.5,6.3,3.8,12.4,3.8,18.3c0,16.7-8.5,31.5-25.4,44.5c-16,12.2-32.6,18.3-50,18.3h-4.2
		c-6.7,0-11.6-0.6-14.7-1.9c-5-2.1-7.6-5.9-7.6-11.6c0-1.4,0.1-2.4,0.2-3.1c0.7-5.6,4.3-12.4,10.7-20.4
		c9.4-11.9,14.6-18.6,15.5-20.2c4.6-10.1,8.3-17.6,10.9-22.5c4.8-8.7,10.6-14.7,17.6-18.1c4.1-1.8,8.4-2.7,13-2.7
		c6.6,0,12.6,1.7,18.1,5.1C1467.2,90.4,1471.2,95.2,1473.7,101.2z M1402.1,172.8c2.7,0,5.9-0.6,9.7-1.9c5.5-1.8,8.6-2.8,9.5-2.9
		c8.1-1.7,15.8-5.6,22.9-11.7c7.1-6.1,13-13.3,17.6-21.7c2-3.5,3.5-7,4.6-10.4c1.1-3.4,1.7-6.8,1.7-10.2c0-2.9-0.5-5.6-1.5-8
		c-3.4-8-8.3-12-14.7-12c-4.1,0-7.9,1.6-11.5,4.8c-1.7,1.4-5,5.1-10.1,11.1c-2.2,2.7-4.5,5.4-6.7,8.1c-2.2,2.7-3.7,5.1-4.5,7
		c-0.8,2-1.2,4.1-1.2,6.5c0,1.5,0.2,4.1,0.5,7.6c0.3,3.5,0.5,6,0.5,7.3c-2.9-1.3-5.5-2.4-7.7-3.6c-2.2-1.1-4.4-2.3-6.8-3.6
		c-1.8,2.9-4.1,6.4-6.9,10.5c-5,7.4-8.3,13.4-9.7,18.1c0.7,0.4,1.4,0.8,2.1,1.3C1396,171.6,1400,172.8,1402.1,172.8z"/>
</g>
<g class="st1">
	<path class="st0" d="M579.6,373.3c-4.6,4.2-11.8,7.8-21.4,10.9c-5.2,1.7-13.2,3.6-23.9,5.7c-6.2,1.3-12,1.9-17.6,1.9
		c-7.6,0-13.4-1.3-17.4-3.8c-4.6-2.9-6.9-7.5-6.9-13.6c0-4.1,1.3-9.2,3.8-15.5c3.6-9,9.2-18.6,16.8-29c1.8-2.5,8.8-11.5,21-26.9
		c8.7-11.1,15.2-20.2,19.5-27.5c3.4-5.7,10.1-10.4,20.4-13.9c7.1-2.5,14.9-4.2,23.4-5.1c8.5-0.9,16.4-1.9,23.8-2.8
		c3.6,0,6.8,0.5,9.3,1.6c2.6,1.1,4.8,3,6.6,5.8c-21.6,4.9-43,9.7-64.5,14.5c-4.6,1.8-9.1,5.7-13.4,11.5c-3.5,4.9-7,9.8-10.5,14.7
		c-5.6,6.4-9.7,11.5-12.4,15.2c-2.7,3.7-4.9,7.4-6.7,11c0.8,0.1,1.7,0.2,2.5,0.2c0.8,0,1.7,0,2.5,0c5,0,11.2-0.8,18.5-2.3
		c16.5-3.5,26.7-5.2,30.5-5.2c2.5,0,4.4,0,5.7,0v9.7c-4.2,0-11.7,1.5-22.5,4.5c-10.8,3-18.4,4.5-22.9,4.5c-3.9,0-7.2-0.7-10-2
		c-2.7-1.3-4.9-3.7-6.6-7c-5.9,7.8-10.6,14.2-14.3,19.1c-7,9.4-10.5,16.7-10.5,21.8c0,1.7,0.3,3.4,1,5.1c0.7,1.8,2.3,3.1,4.7,4
		c2.4,0.9,5.5,1.4,9.1,1.4c4.1,0,8.4-0.4,13-1.3c5.5-1.3,9.2-2.1,11.1-2.5c8.5-1.5,16.5-3.9,23.9-7.1c3.8-1.8,6.3-3,7.6-3.6
		c1.3-0.6,2.4-0.8,3.6-0.8c1.3,0,3.9,0.7,8,2.1L579.6,373.3z"/>
	<path class="st0" d="M670.1,301.7c-0.4-0.4-2.5-0.8-6.1-1c-9.1-0.7-14.2-1.2-15.3-1.5c-5.5-1.3-9.9-3.2-13.4-5.9
		c-4.3-3.4-6.5-7.5-6.5-12.4c0-2,0.3-3.8,0.8-5.5c1.3-4.6,3.1-6.9,5.7-6.9c1.1,0,2.7,0.5,4.8,1.5c3.4,1.7,5.5,2.7,6.3,2.9
		c-1.8,3.1-2.7,5.7-2.7,7.8c0,5,7.3,8.1,21.8,9c14.6,1,22.5,1.8,23.7,2.3c-0.4,1.7-1.6,5.5-3.6,11.5c-2.5,8-3.8,14.2-3.8,18.7
		c0,1.4,0,2.5,0,3.1c8-6.6,14.5-11.8,19.4-15.8c9.4-7.6,16.7-11.3,21.9-11.3c1.7,0,3.3,0.4,4.7,1.2c1.5,0.8,2.6,2,3.4,3.8
		c0.8,1.8,1.2,4,1.2,6.8c0,2.8-0.6,6.5-1.7,11c-1.1,4.6-2.2,9.2-3.4,14c0.6-0.1,12.5-6.7,35.7-19.7c8.5-4.8,16-7.1,22.3-7.1
		c2,0,4.1,0.2,6.5,0.6c-1.7,7.4-5.7,15.1-12.2,22.9c-6,6.6-12,13.1-18.1,19.5c-7.3,8-12.3,15.3-15.1,22c2.5,0.3,4.2,0.4,5,0.4
		c2.8,0,6.1-0.7,9.8-2.2c3.7-1.5,6.8-2.5,9.1-3c0.1,0.8,0.2,2,0.2,3.4c0,4.6-1.7,8.1-5,10.5c-2.7,1.8-7.4,3.6-14.3,5.2
		c-2.4,0.6-4.7,0.8-6.9,0.8c-5.3,0-8-2.8-8-8.4c0-2,0.2-4.2,0.6-6.7c1.4-7.1,5.5-15,12.2-23.7c9.9-12.6,15.4-19.8,16.4-21.6
		c-6,1-13.9,4.8-23.7,11.3c-4.9,3.4-9.7,6.7-14.5,10.1c-3.6,2.5-10.7,9-21.2,19.5c-8.7,8.8-15.9,14.2-21.6,16.2
		c0-7.3,2.9-15.3,8.6-23.9c5.3-7.4,10.6-14.9,16-22.5c5.9-9.1,8.8-17.5,8.8-25.2c-4.5,1.5-9.1,3.9-13.9,7.1
		c-4.8,3.2-11.3,8.8-19.5,16.8c-10.4,8-20.7,16-31.1,24c-5.6,6.2-11.1,12.3-16.6,18.5c-6.9,6.9-13.3,11-19.3,12.4
		c0-5.2,1.7-10.9,5.2-17c1.4-2.5,5.2-8,11.6-16.4c2-2.7,7.3-8.8,16-18.5c12.6-14,20-26.1,22.3-36.4L670.1,301.7z"/>
	<path class="st0" d="M834.7,316.2c-0.1-1.4,0.6-2.4,2.2-3.1c1.6-0.6,3.3-1.2,4.9-1.8c3.4-1.4,7.3-2.8,11.9-4.2
		c4.5-1.4,8.5-2.4,11.9-3c13.9-3.4,27.7-6.8,41.6-10.2c4.1,0,7.6,0.7,10.5,2.2c2.9,1.5,5.5,4.1,7.8,7.9c1.8,3.2,2.7,6.8,2.7,10.7
		c0,5.7-2,12.3-6.1,19.8c-1.4,2.5-5.1,8.3-11.1,17.2c-7.1,10.9-15.5,20-25.2,27.1c-11.2,8.3-22.2,12.4-33,12.4
		c-3.4,0-6.8-0.5-10.3-1.5c-3.5-1-6.9-2.5-10.3-4.6c-2,2.8-8.2,13.1-18.7,30.8c-7.7,13.1-14.9,22.7-21.6,28.7
		c-1-2.9-1.5-5.9-1.5-8.8c0-5.3,2.3-11.6,6.9-18.9c6-9.5,9.7-16.2,11.1-20.1c2.8-8.1,6.7-16.8,11.8-26c4.1-7.4,9-15.7,14.9-24.9
		c5.3-8.2,10.7-16.6,16.2-24.9c-1.3-0.3-3.5-0.8-6.7-1.5c-3.2-0.7-6.5-1-9.9-1V316.2z M839.3,375.7h2.5c2.1,1.5,5.1,2.3,9,2.3
		c3.2,0,6.7-0.5,10.5-1.4c3.8-0.9,7.6-2,11.5-3.3c7.1-2.5,14.1-7.4,20.8-14.7c5.9-6.3,10.8-13.4,14.9-21.2c1.8-3.5,3.7-7.2,5.8-11.1
		c2-3.9,3-7.2,3-9.9c0-2.5-0.8-4.6-2.5-6.3c-1.7-1.7-4.2-2.8-7.7-3.5c-3.4-0.6-6.3-0.9-8.7-0.9c-6,0-11.4,1.4-16.3,4.2
		c-4.8,2.8-8.8,7.2-11.9,13.2c-2.4,4.8-6.3,10.9-11.8,18.5c-12.2,17-19.4,27.5-21.6,31.7L839.3,375.7z"/>
	<path class="st0" d="M946.7,389.9l-2.3-2.3c-0.3-1.1,0.3-2.8,1.7-5c1-1.5,2-3.1,3.1-4.6c1.1-2,2.9-4.4,5.2-7.4
		c5.2-6.3,8.2-10.2,9-11.8c11.9-17.5,23.8-35,35.7-52.5c5.5-9.4,9.7-15.8,12.6-19.1c5.3-6.3,11.5-10.2,18.5-11.8
		c-2.1,5.9-6.4,13.2-12.8,21.9c-5.5,7.1-10.9,14.3-16.2,21.4c-5.5,8-8.5,15-9.2,21c4.2-2.9,11.5-9.2,22-19
		c5.6-5.3,10.2-9.2,13.9-11.7c6.7-5.7,11.7-9.8,14.9-12.3c6-4.7,11.6-7.1,16.8-7.1c0.7,0,2,0,4,0c-7.1,15.1-14.3,30.3-21.4,45.4
		c3.4,0.4,5.9,0.6,7.8,0.6c1.5,0,3.7-0.2,6.5-0.6c-0.7,3.6-2.7,7.3-5.9,10.9c-3.6,4.2-7.4,6.3-11.1,6.3c-2.5,0-4.8-1-6.9-2.9
		c-1.1-1.1-2-2.7-2.5-4.6c-0.6-2-0.8-4.1-0.8-6.5c0-3.5,0.3-7.1,1-10.7c0.7-3.6,1.5-7.5,2.3-11.6c-7.3,7.3-14.5,14.5-21.6,21.5
		c-7.1,7.1-15,14.2-23.5,21.3c-2.1,1.8-6.8,6.6-14.1,14.3c-10.8,11.6-19.7,18-26.7,19.1V389.9z"/>
	<path class="st0" d="M1220.9,368.5c-0.6,3.8-2.2,6.6-4.8,8.4c-2,1.4-5.1,2.6-9.5,3.6l-45.4,9.5c-5.5,1.1-11,2-16.5,2.6
		c-5.5,0.6-11.2,0.9-17.1,0.9c-14.1,0-25.1-2.1-32.8-6.3c-9.8-5.3-14.7-13.9-14.7-25.8c0-13.7,7.2-27.8,21.6-42.2
		c12.3-12.5,25.8-21.5,40.3-27.1c5.5-2,10.8-3.6,16-5c7.8-2.1,14.3-3.2,19.5-3.2c5.3,0,9.8,0.8,13.3,2.3c3.6,1.5,6.3,4.2,8.3,8.1
		c2,3.9,2.9,7.6,2.9,11.2c0,7.4-3.7,14.3-11.1,20.6c-6.7,5.7-13.9,9.5-21.4,11.1c-7.6,1.7-15,3.3-22.4,4.9
		c-7.3,1.6-13.8,2.4-19.4,2.4c-5,0-9.6-0.5-13.6-1.6c-4.1-1-8.3-2.9-12.6-5.6c-2.4,4.2-4.7,8.4-6.9,12.7c-2.2,4.3-3.4,8-3.4,11.2
		c0,2.5,0.8,5,2.4,7.5c1.6,2.5,4.3,4.8,8,6.9c3.7,2.2,8.4,3.8,14.2,4.8c5.7,1,11.7,1.6,17.8,1.6c4.9,0,8.7-0.1,11.4-0.3
		c2.7-0.2,7.1-0.7,13.2-1.4c6.1-0.7,11.9-1.7,17.3-3c5.5-1.3,11-2.7,16.6-4.1c3.6-0.8,8.4-3,14.2-6.6c5.8-3.6,11.4-5.4,16.9-5.4
		c-0.3,0.4-0.5,0.8-0.6,1.3C1221.8,365.3,1221.2,367.3,1220.9,368.5z M1123.3,328.4c1,0.3,2.7,1,5,2.3c2.4,1.3,4.6,1.9,6.7,1.9
		c5,0,11.6-1.2,19.7-3.6c3.8-1.1,7.6-2.3,11.3-3.6c5.7-1.5,10.8-3.6,15.1-6.1c6.6-3.9,9.9-8.3,9.9-13c0-1.3-0.4-2.9-1.3-4.8
		c-0.8-2-2.3-3.4-4.5-4.3c-2.2-0.9-4.9-1.4-8.3-1.4c-4.2,0-9.3,0.8-15.3,2.3c-3.2,0.8-7.6,2.1-13.2,3.9c-5.6,1.8-11.5,5.1-17.8,10.2
		c-4.1,3.2-9.7,8.5-17,15.8c0.1,0,0.3,0,0.4,0c1.4,0,2.9,0,4.4,0C1120.5,328,1122.1,328.1,1123.3,328.4z"/>
	<path class="st0" d="M1285.2,330.2c0-0.9,0-2.1,0-3.4c0.1,0.8,0.2,1.8,0.2,2.7c-0.1,0.6-0.3,1-0.4,1.5c-0.4-0.4-1.1-2.1-2-5.1
		c-0.9-3-1.5-5.7-1.9-8c-0.4-2.3-0.5-4.9-0.5-7.7c0-4.3,0.8-8,2.3-10.9c4.9-8.7,15-14.9,30.2-18.7c12.2-2.5,24.4-5,36.5-7.6
		c0.6-0.1,1.7-0.2,3.4-0.2c2.4,0,5,0.3,8,0.8c2.9,0.6,4.8,1.2,5.5,1.9c1.8,1.8,2.7,3.7,2.7,5.7c0,1.8-0.9,4-2.6,6.5
		c-1.8,2.5-3.4,4.8-4.9,6.9c-3.9,8.3-7.8,16.5-11.8,24.8c-5.2,9.5-10.8,15.5-16.8,18.1c0-6.3,1.6-13.1,4.8-20.4
		c4.8-10.6,9.5-21.3,14.3-32.1c-2.1-0.6-5-0.8-8.6-0.8c-11.6,0-22.5,2.4-32.8,7.1c-12.2,5.7-18.3,13.2-18.3,22.3c0,6.9,7,15,21,24.4
		c14,9.4,21,16.9,21,22.7c0,3.2-1.3,6.7-4,10.3c-5.3,7-13.3,12.6-24,16.8s-21.5,6.3-32.4,6.3c-8.7,0-16.1-1.3-22.3-4
		c-3.4-1.5-5.7-3.3-7.1-5.4c-1.4-2-2.1-4.4-2.1-7.1c0-3.8,1.5-8,4.4-12.5c2.5-3.8,5.7-7.5,9.6-11c4.6-4.2,9.8-8.1,15.6-11.5
		c5.8-3.4,11.7-6,17.7-7.7L1285.2,330.2z M1268.6,354c-5,3.5-8.9,6.6-11.5,9.1c-4.9,4.7-7.4,8.6-7.4,11.9s2.3,5.9,6.9,7.8
		c3.6,1.6,8.5,2.3,14.5,2.3c6.6,0,13.5-0.9,20.9-2.8c7.3-1.8,14-4.2,19.8-7s8.8-6.7,8.8-11.7c0-4.1-2.2-8.6-6.7-13.6
		c-3.9-4.2-8.7-7.8-14.3-10.8c-2.5-1.3-4.8-1.9-6.9-1.9c-3.4,0-7.2,1.8-11.4,5.5C1277,346.6,1272.8,350.3,1268.6,354z"/>
	<path class="st0" d="M1423.8,306.4c-0.4-0.6,0.1-2.1,1.6-4.7c1.5-2.6,2.5-4.2,3-4.7c2.5-2.7,6.4-5.1,11.8-7.2
		c5.3-2.2,10.5-3.3,15.5-3.3c2.5,0,4.6,0.2,6.3,0.7c1.7,0.5,3.2,1.4,4.6,2.6c4.9,4.3,7.4,10.4,7.4,18.1c0,9.4-3.2,20.1-9.5,32.1
		c-5.3,10.2-11,18.1-17,23.7c-5.5,5-8.2,9.2-8.2,12.6c0,2.5,1.6,4.3,4.9,5.5c3.3,1.1,7.7,1.7,13.3,1.7c4.9,0,9.4-0.2,13.4-0.7
		c4.1-0.5,8.4-1.3,13-2.4c4.6-1.1,8.9-2.4,12.8-3.8c7.4-2.7,14.8-5.3,22.3-8c5.2-2.5,9.3-4.4,12.5-5.7c3.2-1.3,5.4-1.7,6.6-1.5
		c2.8,0.4,4.2,1,4.2,1.7c0,0.6,0,1.3,0,2.2c0,0.9,0.2,2,0.6,3.3c-4.6,0-9.6,1.6-14.9,4.8c-6.6,4.1-11.2,6.4-13.9,7.1
		c-16.7,5.5-33.3,10.9-50,16.4c-3.8,0.4-7.5,0.6-11.1,0.6c-5.3,0-9.9-0.5-13.8-1.6c-3.9-1-7.5-3-11-6c-4.1-3.5-7-5.2-8.8-5.2
		c-0.4,0-2.2,0.5-5.4,1.4c-3.1,0.9-5.6,1.4-7.3,1.6c-1.8,0.1-3.3,0.2-4.7,0.3c-1.4,0.1-2.6,0.1-3.6,0.1c-3.9,0-7.4-0.4-10.5-1.2
		c-3.1-0.8-5.5-2.1-7.4-4.1c-2.2-2.4-4-5.6-5.1-9.7c-1.2-4.1-1.8-8.5-1.8-13.2c0-8.3,1.5-16.1,4.5-23.6c3-7.5,6.9-12.6,11.7-15.2
		c4.8-2.7,9.7-4,14.9-4c8.1,0,16.4,3.3,24.8,9.9c6.9,5.3,12.8,12,17.8,20.2c4.6-7.3,7.8-12.7,9.5-16.2c3.4-6.9,5-12.9,5-18.3
		c0-1.7-0.1-2.9-0.2-3.8c-0.6-4.1-1.8-7-3.6-8.8c-1.8-1.8-4.1-2.7-6.9-2.7c-4.2,0-10.2,2.1-18.1,6.2c-3.2,1.8-6.4,3.5-9.4,5.2V306.4
		z M1385.6,347.1c-0.7,3.2-1,6.2-1,8.8c0,6,1.5,10.9,4.4,14.7s7.2,5.7,12.8,5.7c1.5,0,3.3-0.2,5.2-0.6c7.4-1.5,13.2-4.7,17.4-9.5
		c4.2-4.8,6.3-10.1,6.3-16s-1.8-10.9-5.5-15.1c-4.2-4.8-9.7-7.1-16.6-7.1c-6.2,0-11.2,1.8-15.2,5.4
		C1389.4,336.9,1386.8,341.5,1385.6,347.1z"/>
</g>
</svg>
