<?xml version="1.0" encoding="utf-8"?>
<!-- Generator: Adobe Illustrator 24.3.0, SVG Export Plug-In . SVG Version: 6.00 Build 0)  -->
<svg version="1.1" id="Capa_1" xmlns="http://www.w3.org/2000/svg" xmlns:xlink="http://www.w3.org/1999/xlink" x="0px" y="0px"
	 viewBox="0 0 1324.3 450.5" style="enable-background:new 0 0 1324.3 450.5;" xml:space="preserve">
<style type="text/css">
	.st0{fill:#FFFFFF;}
	.st1{fill:none;}
	.st2{font-family:'Chapman-Regular';}
	.st3{font-size:210px;}
</style>
<g>
	<g>
		<g>
			<g>
				<g>
					<path class="st0" d="M393.9,369.9h-4.4c-2-3.1-3.7-6.3-5.1-9.8c-1.3-3-4.7-4.5-7.8-3.2c-3,1.3-4.5,4.7-3.2,7.8
						c0.7,1.8,1.6,3.5,2.4,5.2H142c-1.8,0-3.5,0.3-5.2,0.7c-3.7-6.3-8.8-18.1-8.8-35.5c0-2.6,0.1-5.2,0.3-7.7h114.2c3.3,0,6-2.7,6-6
						s-2.7-6-6-6H133.5l14-15.2h228.3c-2.5,4.8-4.4,9.9-5.7,15.2h-78.3c-3.3,0-6,2.7-6,6s2.7,6,6,6h76.2c-0.2,2.4-0.4,4.9-0.4,7.3
						c0,3.3,2.6,6,5.9,6h0c3.3,0,5.9-2.7,6-5.9c0.1-12.5,3.5-24.4,10-34.5h4.4c10.6,0,19.1-8.6,19.1-19.1c0-10.6-8.6-19.1-19.1-19.1
						h-74.5l68.2-68.2c3.9-3.9,6-9,6-14.5c0-5.5-2.1-10.6-6-14.5l-1.5-1.5c-3.9-3.9-9-6-14.5-6c-5,0-9.7,1.8-13.5,5l-10.5-10.5
						l3.6-3.6c4.8-4.8,6.3-12,3.7-18.3l-4.9-11.9c-1.7-4.1-5.3-7.1-9.6-8l-8.3-8.3c-2.3-2.3-6.1-2.3-8.4,0c-2.3,2.3-2.3,6.1,0,8.4
						l4.1,4.1L234,208.2l-27.6-27.6l93.9-93.9l3.7,3.7c1.2,1.2,2.7,1.7,4.2,1.7c1.5,0,3-0.6,4.2-1.7c2.3-2.3,2.3-6.1,0-8.4l-7.9-7.9
						c-0.9-4.3-3.9-7.9-8-9.6c0,0,0,0,0,0l-11.9-4.9c-6.3-2.6-13.5-1.1-18.3,3.7l-3.6,3.6l-10.5-10.5c3.3-3.7,5-8.5,5-13.5
						c0-5.5-2.1-10.6-6-14.5l-1.5-1.5c-3.9-3.9-9-6-14.5-6s-10.6,2.1-14.5,6L146.6,101c-3.9,3.9-6,9-6,14.5s2.1,10.6,6,14.5l1.5,1.5
						c3.9,3.9,9,6,14.5,6c5,0,9.7-1.8,13.5-5l10.5,10.5l-3.6,3.6c-4.8,4.8-6.3,12-3.7,18.3l4.9,11.9c1.7,4.1,5.2,7,9.5,7.9
						l-29.9,35.6c-7.4-3-16.2-1.6-22.2,4.4c-3.8,3.8-6,9-6,14.4c0,2.4,0.4,4.8,1.2,7l-13.5,12.5c-2.4,2.2-2.6,6-0.3,8.4
						c1.2,1.3,2.8,1.9,4.4,1.9c1.4,0,2.9-0.5,4-1.6l12.5-11.6l14.8,14.8l-111,120.2c-3.2,3.4-7.5,5.4-12.1,5.5
						c-4.7,0.1-9-1.7-12.3-5c-3.3-3.3-5.1-7.7-5-12.3s2-9,5.5-12.1l87-80.3c2.4-2.2,2.6-6,0.3-8.4c-2.2-2.4-6-2.6-8.4-0.3l-87,80.3
						c-5.8,5.4-9.1,12.7-9.3,20.7c-0.2,7.9,2.8,15.4,8.5,21c5.5,5.5,12.7,8.5,20.4,8.5c0.2,0,0.4,0,0.6,0c7.9-0.2,15.3-3.5,20.7-9.3
						l35.7-38.7c2.9,10,7,16.8,9.6,20.4c2.6,3.6,6.8,5.8,11.3,5.8h10c-0.1,0.8-0.2,1.7-0.2,2.5c0,10.6,8.6,19.1,19.1,19.1h251.9
						c10.6,0,19.1-8.6,19.1-19.1C413.1,378.5,404.5,369.9,393.9,369.9L393.9,369.9z M401.2,281.2c0,4-3.2,7.2-7.2,7.2H158.5
						l9.9-10.7c2.3,0.8,4.6,1.2,7,1.2c4.8,0,9.5-1.7,13.3-5h205.2C397.9,274,401.2,277.3,401.2,281.2L401.2,281.2z M221.4,212.5
						l-34.5,28.9l-13.7-13.7l28.9-34.5L221.4,212.5z M195.4,262.1c0.6-3.8,0.2-7.7-1.2-11.2l35.6-29.9c0.9,4.3,3.9,7.8,7.9,9.5
						l11.9,4.9c2.1,0.8,4.2,1.3,6.4,1.3c4.4,0,8.7-1.7,11.9-4.9l3.6-3.6l10.5,10.5c-5.8,6.6-6.6,16.1-2.4,23.5L195.4,262.1
						L195.4,262.1z M371.7,169.3c2.3,0,4.5,0.9,6.1,2.5l1.5,1.5c1.6,1.6,2.5,3.8,2.5,6.1c0,2.3-0.9,4.5-2.5,6.1l-74.2,74.2
						c-1.6,1.6-3.8,2.5-6.1,2.5s-4.5-0.9-6.1-2.5l-1.5-1.5c-3.4-3.4-3.4-8.8,0-12.2l74.2-74.2C367.2,170.1,369.4,169.3,371.7,169.3
						L371.7,169.3z M349.8,170.8l-59.3,59.3l-10.5-10.5l59.3-59.3L349.8,170.8z M241.8,217.2l95.1-95.1c0.3-0.3,0.6-0.4,0.9-0.4
						c0.1,0,0.2,0,0.3,0c0.3,0.1,0.7,0.3,1,0.8l4.9,11.9c0.8,1.9,0.3,4-1.1,5.4l-83.4,83.4c-1.4,1.4-3.5,1.8-5.4,1.1l-11.9-4.9
						c-0.5-0.2-0.7-0.6-0.8-1S241.4,217.7,241.8,217.2L241.8,217.2z M162.6,125.6c-2.3,0-4.5-0.9-6.1-2.5l-1.5-1.5
						c-1.6-1.6-2.5-3.8-2.5-6.1c0-2.3,0.9-4.5,2.5-6.1l74.2-74.2c1.6-1.6,3.8-2.5,6.1-2.5c2.3,0,4.5,0.9,6.1,2.5l1.5,1.5
						c1.6,1.6,2.5,3.8,2.5,6.1s-0.9,4.5-2.5,6.1l-74.2,74.2C167,124.7,164.9,125.6,162.6,125.6L162.6,125.6z M184.5,124.1l59.3-59.3
						l10.5,10.5L195,134.6L184.5,124.1z M191.4,155.1l83.4-83.4c0.9-0.9,2.2-1.5,3.5-1.5c0.6,0,1.3,0.1,1.9,0.4l11.9,4.9
						c0.5,0.2,0.7,0.6,0.8,1c0.1,0.3,0.1,0.8-0.4,1.2l-95.1,95.1c-0.4,0.4-0.9,0.4-1.2,0.4c-0.3-0.1-0.7-0.3-1-0.8l-4.9-11.9
						C189.6,158.6,190,156.5,191.4,155.1L191.4,155.1z M147.5,239.2c0-2.3,0.9-4.4,2.5-6c3.3-3.3,8.6-3.3,11.9,0l19.4,19.4
						c3.3,3.3,3.3,8.6,0,11.9c-3.3,3.3-8.6,3.3-11.9,0L150,245.2C148.4,243.6,147.5,241.5,147.5,239.2L147.5,239.2z M111.4,373.8
						c-2.6-3.7-7.3-11.7-9.5-24.1l14.3-15.5c0,0.3,0,0.6,0,0.9c0,18.4,5,31.6,9.2,39.5H113C112.4,374.6,111.8,374.3,111.4,373.8z
						 M393.9,396.3H142c-4,0-7.2-3.2-7.2-7.2c0-4,3.2-7.2,7.2-7.2h251.9c4,0,7.2,3.2,7.2,7.2C401.2,393,397.9,396.3,393.9,396.3z"/>
					<path class="st0" d="M173,342.6c-3.3,0-6,2.7-6,6c0,3.3,2.7,6,6,6h138.8c3.3,0,6-2.7,6-6c0-3.3-2.7-6-6-6H173z"/>
				</g>
			</g>
		</g>
	</g>
</g>
<rect x="465.1" y="31" class="st1" width="1370.1" height="579.6"/>
<text transform="matrix(1 0 0 1 465.1296 182.2463)"><tspan x="0" y="0" class="st0 st2 st3">Derecho </tspan><tspan x="0" y="210" class="st0 st2 st3">Empresa</tspan></text>
</svg>
