<svg viewBox="0 0 59.86 18.77" xmlns="http://www.w3.org/2000/svg"><g transform="translate(-.73 -.96)"><path d="m7.31 1.07v8.4h-1.56v-3.55h-3.21v3.55h-1.54v-8.2a6.27 6.27 0 0 1 1.56-.2v3.49h3.19v-3.29a6.27 6.27 0 0 1 1.56-.2z"/><path d="m13.4 7.75h-3l-.5 1.72h-1.52l2.62-8.18a8.5 8.5 0 0 1 2-.19l2.61 8.37h-1.73zm-.4-1.3-1-3.89-1.19 3.89z"/><path d="m22.51 7.1c0 1.43-1 2.37-2.93 2.37h-3v-8.3a13.77 13.77 0 0 1 2.42-.17c2.28 0 3.19.89 3.19 2.29a2 2 0 0 1 -1.09 1.83 2 2 0 0 1 1.41 1.98zm-3.51-4.86c-.29 0-.56 0-.83 0v2.36h1.09c.84 0 1.39-.31 1.39-1.18s-.44-1.18-1.65-1.18zm1.91 4.76c0-.81-.52-1.19-1.53-1.19h-1.23v2.39h1.25c.95 0 1.51-.32 1.51-1.2z"/><path d="m23.94 1.27a6.15 6.15 0 0 1 1.56-.2v7h2.93a12.1 12.1 0 0 1 -.13 1.35h-4.36z"/><path d="m31 8.14h3.49a9.22 9.22 0 0 1 -.13 1.33h-4.88v-8.3h5.07a9.22 9.22 0 0 1 -.13 1.33h-3.42v2.12h3.13a8.21 8.21 0 0 1 -.13 1.38h-3z"/><path d="m44.78 9.47h-1.49l-.22-3.28c-.07-.9-.07-1.85-.07-2.79-.34 1.13-.74 2.28-1.11 3.31l-1 2.76h-1.3l-1-2.79c-.41-1.09-.77-2.18-1.09-3.2 0 .92-.06 1.94-.12 2.86l-.2 3.13h-1.48l.6-8.2a8.41 8.41 0 0 1 1.83-.2l2.14 6.35 2-6.15a7.53 7.53 0 0 1 1.9-.2z"/><path d="m46 5.32c0-2.71 1.38-4.32 3.76-4.32s3.79 1.71 3.79 4.36-1.39 4.37-3.77 4.37-3.78-1.73-3.78-4.41zm5.94 0c0-1.95-.76-3-2.17-3s-2.14 1-2.14 3 .76 3 2.16 3 2.14-1.01 2.14-3z"/><path d="m54.51 9.19a5.26 5.26 0 0 1 .17-1.31 4.86 4.86 0 0 0 2.12.5c1 0 1.56-.37 1.56-1.07s-.42-.92-1.36-1.31l-.68-.29a2.43 2.43 0 0 1 -1.8-2.41c0-1.31.85-2.34 3-2.34a6 6 0 0 1 2.17.38 6.91 6.91 0 0 1 -.19 1.27 5.66 5.66 0 0 0 -1.91-.36c-1.06 0-1.45.46-1.45 1s.38.92 1.2 1.24l.72.27a2.54 2.54 0 0 1 2 2.44c0 1.41-1.06 2.48-3.16 2.48a5 5 0 0 1 -2.39-.49z"/><path d="m7.6 15.24c0 2.66-1.39 4.23-4.15 4.23h-2.45v-8.28a10.78 10.78 0 0 1 2.4-.19c3.03 0 4.2 1.76 4.2 4.24zm-1.6 0c0-1.9-.77-2.94-2.55-2.94a6.68 6.68 0 0 0 -.88 0v5.78h1c1.66.05 2.43-.91 2.43-2.84z" fill="none" stroke="#000" stroke-miterlimit="10" stroke-width=".5"/><path d="m10.62 18.14h3.49a9.19 9.19 0 0 1 -.11 1.33h-4.94v-8.3h5.07a9.22 9.22 0 0 1 -.13 1.33h-3.38v2.12h3.13a7.22 7.22 0 0 1 -.14 1.38h-3z" fill="none" stroke="#000" stroke-miterlimit="10" stroke-width=".5"/><path d="m19.88 12.5v2.15h3a8.46 8.46 0 0 1 -.13 1.35h-2.87v3.47h-1.56v-8.3h4.86a7.89 7.89 0 0 1 -.13 1.33z"/><path d="m24.27 16.76v-5.49a6.27 6.27 0 0 1 1.56-.2v5.64a1.45 1.45 0 0 0 1.61 1.62 1.45 1.45 0 0 0 1.61-1.63v-5.43a6.13 6.13 0 0 1 1.55-.2v5.69a2.85 2.85 0 0 1 -3.17 2.92 2.83 2.83 0 0 1 -3.16-2.92z"/><path d="m37.52 12.52h-2.19v7h-1.57v-7h-2.3a11.44 11.44 0 0 1 .13-1.35h6.06a11.44 11.44 0 0 1 -.13 1.35z"/><path d="m38.5 16.76v-5.49a6.27 6.27 0 0 1 1.56-.2v5.64a1.61 1.61 0 1 0 3.22 0v-5.44a6.15 6.15 0 0 1 1.56-.2v5.69a2.86 2.86 0 0 1 -3.18 2.92 2.83 2.83 0 0 1 -3.16-2.92z"/><path d="m49.06 16.4h-.91v3.07h-1.56v-8.26a10.31 10.31 0 0 1 2.29-.21c2.41 0 3.28 1.34 3.28 2.65a2.52 2.52 0 0 1 -1.66 2.47l1.94 3.38h-1.77zm-.14-1.26c1 0 1.62-.42 1.62-1.42s-.54-1.47-1.64-1.47c-.25 0-.5 0-.75 0v2.85z"/><path d="m53 15.32c0-2.71 1.43-4.32 3.8-4.32s3.79 1.71 3.79 4.36-1.39 4.37-3.76 4.37-3.83-1.73-3.83-4.41zm5.93 0c0-2-.75-3-2.17-3s-2.13 1-2.13 3 .75 3 2.16 3 2.21-1.01 2.21-3z"/></g></svg>